# xmcd
#
# Track frame offsets:
#	150
#	14415
#	28075
#	41085
#	55117
#	69300
#	84295
#	98090
#	111112
#	124165
#	136907
#	151417
#	165455
#	180895
#	195805
#	211802
#	224992
#	241225
#	256807
#	272285
#	284542
#	298092
#	310712
#	326095
#
# Disc length: 4527 seconds
#
# Revision: 1
# Processed by: cddbd v1.5PL3 Copyright (c) Steve Scherf et al.
# Submitted via: audiograbber 1.81.03
#
DISCID=4d11ad18
DTITLE=Big Bill Broonzy - Complete Recorded Works in Chronological Order Vol. 2
DYEAR=1932
DGENRE=Blues
TTITLE0=You Do It (Steele Smith. vcl)
TTITLE1=Mr. Conductor Man
TTITLE2=Too-Too Train Blues (11605)
TTITLE3=Worrying You Off My Mind--Part 1
TTITLE4=Worrying You Off My Mind--Part 2
TTITLE5=Shelby County Blues
TTITLE6=Mistreatin' Mamma Blues (11609)
TTITLE7=Bull Cow Blues
TTITLE8=How You Want It Done? (11611)
TTITLE9=Long Tall Mama
TTITLE10=M and O Blues
TTITLE11=Rukus Juice Blues
TTITLE12=Friendless Blues
TTITLE13=Milk Cow Blues
TTITLE14=Hungry Man Blues
TTITLE15=I'll Be Back Home Again
TTITLE16=Bull Cow Blues--Part 2
TTITLE17=Serve it to Me Right
TTITLE18=Starvation Blues (80394)
TTITLE19=Mississippi River Blues
TTITLE20=At the Break of Day
TTITLE21=I Want to Go Home
TTITLE22=Hard Headed Woman
TTITLE23=Dying Day Blues
EXTD=DOCD-5051  1932 - 1934
EXTT0=
EXTT1=
EXTT2=
EXTT3=
EXTT4=
EXTT5=
EXTT6=
EXTT7=
EXTT8=
EXTT9=
EXTT10=
EXTT11=
EXTT12=
EXTT13=
EXTT14=
EXTT15=
EXTT16=
EXTT17=
EXTT18=
EXTT19=
EXTT20=
EXTT21=
EXTT22=
EXTT23=
PLAYORDER=
